HIERARCHY
ROOT Hips
{
    OFFSET   0.000000   0.000000   0.000000
    CHANNELS 6 Xposition Yposition Zposition Zrotation Xrotation Yrotation
    JOINT Chest
    {
        OFFSET   0.000000   8.007230   0.000000
        CHANNELS 3 Zrotation Xrotation Yrotation
        JOINT Chest2
        {
            OFFSET   0.000000  22.077100   0.000000
            CHANNELS 3 Zrotation Xrotation Yrotation
            JOINT Neck
            {
                OFFSET   0.000000  23.254800   0.000000
                CHANNELS 3 Zrotation Xrotation Yrotation
                JOINT Head
                {
                    OFFSET   0.000010  14.370000   1.956600
                    CHANNELS 3 Zrotation Xrotation Yrotation
                    End Site
                    {
                        OFFSET   0.000000  19.566000   0.000000
                    }
                }
            }
            JOINT LeftCollar
            {
                OFFSET   3.911900  19.017000  -0.467062
                CHANNELS 3 Zrotation Xrotation Yrotation
                JOINT LeftShoulder
                {
                    OFFSET  10.383700   0.000000   0.000000
                    CHANNELS 3 Zrotation Xrotation Yrotation
                    JOINT LeftElbow
                    {
                        OFFSET  26.662100   0.001193   0.000835
                        CHANNELS 3 Zrotation Xrotation Yrotation
                        JOINT LeftWrist
                        {
                            OFFSET  28.869000  -0.000058  -0.000075
                            CHANNELS 3 Zrotation Xrotation Yrotation
                            JOINT LeftFinger0
                            {
                                OFFSET   2.044660  -2.323460   3.252850
                                CHANNELS 3 Zrotation Xrotation Yrotation
                                JOINT LeftFinger01
                                {
                                    OFFSET   3.088130   0.000000   0.000000
                                    CHANNELS 3 Zrotation Xrotation Yrotation
                                    JOINT LeftFinger02
                                    {
                                        OFFSET   2.639450   0.000000   0.000000
                                        CHANNELS 3 Zrotation Xrotation Yrotation
                                        End Site
                                        {
                                            OFFSET   2.582190   0.000000   0.000000
                                        }
                                    }
                                }
                            }
                            JOINT LeftFinger1
                            {
                                OFFSET   8.364480   0.000000   3.252850
                                CHANNELS 3 Zrotation Xrotation Yrotation
                                JOINT LeftFinger11
                                {
                                    OFFSET   4.646920   0.000000   0.000000
                                    CHANNELS 3 Zrotation Xrotation Yrotation
                                    JOINT LeftFinger12
                                    {
                                        OFFSET   2.323460   0.000000   0.000000
                                        CHANNELS 3 Zrotation Xrotation Yrotation
                                        End Site
                                        {
                                            OFFSET   2.273050   0.000000   0.000000
                                        }
                                    }
                                }
                            }
                            JOINT LeftFinger2
                            {
                                OFFSET   8.364490   0.000016   1.078090
                                CHANNELS 3 Zrotation Xrotation Yrotation
                                JOINT LeftFinger21
                                {
                                    OFFSET   5.111620   0.000000   0.000000
                                    CHANNELS 3 Zrotation Xrotation Yrotation
                                    JOINT LeftFinger22
                                    {
                                        OFFSET   2.788150   0.000012   0.000000
                                        CHANNELS 3 Zrotation Xrotation Yrotation
                                        End Site
                                        {
                                            OFFSET   2.727660   0.000000   0.000000
                                        }
                                    }
                                }
                            }
                            JOINT LeftFinger3
                            {
                                OFFSET   7.899780   0.000014  -1.078090
                                CHANNELS 3 Zrotation Xrotation Yrotation
                                JOINT LeftFinger31
                                {
                                    OFFSET   4.646930   0.000000   0.000000
                                    CHANNELS 3 Zrotation Xrotation Yrotation
                                    JOINT LeftFinger32
                                    {
                                        OFFSET   2.323470   0.000000   0.000000
                                        CHANNELS 3 Zrotation Xrotation Yrotation
                                        End Site
                                        {
                                            OFFSET   2.273050   0.000000   0.000000
                                        }
                                    }
                                }
                            }
                            JOINT LeftFinger4
                            {
                                OFFSET   7.435090   0.000000  -3.252850
                                CHANNELS 3 Zrotation Xrotation Yrotation
                                JOINT LeftFinger41
                                {
                                    OFFSET   3.717550   0.000000   0.000000
                                    CHANNELS 3 Zrotation Xrotation Yrotation
                                    JOINT LeftFinger42
                                    {
                                        OFFSET   1.858770   0.000000   0.000000
                                        CHANNELS 3 Zrotation Xrotation Yrotation
                                        End Site
                                        {
                                            OFFSET   1.818440   0.000000   0.000000
                                        }
                                    }
                                }
                            }
                        }
                    }
                }
            }
            JOINT RightCollar
            {
                OFFSET  -3.911900  19.017000  -0.467063
                CHANNELS 3 Zrotation Xrotation Yrotation
                JOINT RightShoulder
                {
                    OFFSET -10.383700   0.000023   0.000000
                    CHANNELS 3 Zrotation Xrotation Yrotation
                    JOINT RightElbow
                    {
                        OFFSET -26.662100   0.001246   0.001011
                        CHANNELS 3 Zrotation Xrotation Yrotation
                        JOINT RightWrist
                        {
                            OFFSET -28.869000  -0.000026  -0.000078
                            CHANNELS 3 Zrotation Xrotation Yrotation
                            JOINT RightFinger0
                            {
                                OFFSET  -2.044660  -2.323490   3.252850
                                CHANNELS 3 Zrotation Xrotation Yrotation
                                JOINT RightFinger01
                                {
                                    OFFSET  -3.088130   0.000000   0.000000
                                    CHANNELS 3 Zrotation Xrotation Yrotation
                                    JOINT RightFinger02
                                    {
                                        OFFSET  -2.639460   0.000000   0.000000
                                        CHANNELS 3 Zrotation Xrotation Yrotation
                                        End Site
                                        {
                                            OFFSET  -2.582190   0.000000   0.000000
                                        }
                                    }
                                }
                            }
                            JOINT RightFinger1
                            {
                                OFFSET  -8.364480   0.000000   3.252850
                                CHANNELS 3 Zrotation Xrotation Yrotation
                                JOINT RightFinger11
                                {
                                    OFFSET  -4.646920   0.000000   0.000000
                                    CHANNELS 3 Zrotation Xrotation Yrotation
                                    JOINT RightFinger12
                                    {
                                        OFFSET  -2.323470   0.000000   0.000000
                                        CHANNELS 3 Zrotation Xrotation Yrotation
                                        End Site
                                        {
                                            OFFSET  -2.273050   0.000000   0.000000
                                        }
                                    }
                                }
                            }
                            JOINT RightFinger2
                            {
                                OFFSET  -8.364480   0.000000   1.078090
                                CHANNELS 3 Zrotation Xrotation Yrotation
                                JOINT RightFinger21
                                {
                                    OFFSET  -5.111620   0.000000   0.000000
                                    CHANNELS 3 Zrotation Xrotation Yrotation
                                    JOINT RightFinger22
                                    {
                                        OFFSET  -2.788160   0.000000   0.000000
                                        CHANNELS 3 Zrotation Xrotation Yrotation
                                        End Site
                                        {
                                            OFFSET  -2.727660   0.000000   0.000000
                                        }
                                    }
                                }
                            }
                            JOINT RightFinger3
                            {
                                OFFSET  -7.899780   0.000000  -1.078090
                                CHANNELS 3 Zrotation Xrotation Yrotation
                                JOINT RightFinger31
                                {
                                    OFFSET  -4.646930   0.000000   0.000000
                                    CHANNELS 3 Zrotation Xrotation Yrotation
                                    JOINT RightFinger32
                                    {
                                        OFFSET  -2.323470   0.000000   0.000000
                                        CHANNELS 3 Zrotation Xrotation Yrotation
                                        End Site
                                        {
                                            OFFSET  -2.273050   0.000000   0.000000
                                        }
                                    }
                                }
                            }
                            JOINT RightFinger4
                            {
                                OFFSET  -7.435090   0.000000  -3.252850
                                CHANNELS 3 Zrotation Xrotation Yrotation
                                JOINT RightFinger41
                                {
                                    OFFSET  -3.717550   0.000000   0.000000
                                    CHANNELS 3 Zrotation Xrotation Yrotation
                                    JOINT RightFinger42
                                    {
                                        OFFSET  -1.858760   0.000000   0.000000
                                        CHANNELS 3 Zrotation Xrotation Yrotation
                                        End Site
                                        {
                                            OFFSET  -1.818440   0.000000   0.000000
                                        }
                                    }
                                }
                            }
                        }
                    }
                }
            }
        }
    }
    JOINT LeftHip
    {
        OFFSET   9.783010   0.000000   0.000000
        CHANNELS 3 Zrotation Xrotation Yrotation
        JOINT LeftKnee
        {
            OFFSET   0.000073 -41.789100   0.001749
            CHANNELS 3 Zrotation Xrotation Yrotation
            JOINT LeftAnkle
            {
                OFFSET   0.000111 -41.133200  -0.000179
                CHANNELS 3 Zrotation Xrotation Yrotation
                JOINT LeftToe
                {
                    OFFSET   0.000000  -6.358960  14.674500
                    CHANNELS 3 Zrotation Xrotation Yrotation
                    End Site
                    {
                        OFFSET   0.000000   0.000000   3.913200
                    }
                }
            }
        }
    }
    JOINT RightHip
    {
        OFFSET  -9.783010   0.000000   0.000000
        CHANNELS 3 Zrotation Xrotation Yrotation
        JOINT RightKnee
        {
            OFFSET   0.000424 -41.789200   0.005205
            CHANNELS 3 Zrotation Xrotation Yrotation
            JOINT RightAnkle
            {
                OFFSET   0.000000 -41.133200  -0.000155
                CHANNELS 3 Zrotation Xrotation Yrotation
                JOINT RightToe
                {
                    OFFSET   0.000000  -6.358960  14.674500
                    CHANNELS 3 Zrotation Xrotation Yrotation
                    End Site
                    {
                        OFFSET   0.000000   0.000000   3.913200
                    }
                }
            }
        }
    }
}
MOTION
Frames: 6
Frame Time:   0.016667
  1.131190  89.398700   3.032970  -3.110650  -7.923710  -0.637692   1.095740   4.683190   0.946184   2.124170   9.383130   1.811140   1.203660   0.197437  -0.015762   1.965480   0.399167  -1.251960  -5.573700  -1.048490   0.280876 -73.342500  18.954600  -2.187990  -0.818365  -4.488050 -17.133500  16.882700 -14.888300   7.747640  36.874600  31.000400 -61.529800 -33.808200   0.002471   0.001688 -11.911100   0.000840   0.006179 -33.233100   5.737300  -8.676390 -27.546700  -0.003035   0.012421 -19.271400  -0.004179   0.003764 -28.602000  -0.905415   1.639420 -37.600800   0.003439   0.011538 -25.042100  -0.011476  -0.002332 -28.433900  -0.900478   1.642070 -35.550400   0.003729  -0.004585 -23.666400   0.003610   0.003108 -31.720100  -0.981030   1.588640 -47.600700   0.004893   0.004937 -31.702100   0.003946   0.000713   9.054370   0.348810   6.294890  69.235100   8.060230  -1.175540  -4.059610  -5.300010  13.759000 -14.650400  -6.367080  -1.497300 -40.264000  30.212800  66.692600  25.081200   0.004239  -0.001914   7.540600   0.002444   0.009226  30.749800   6.059410  10.061400  25.595700  -0.006168   0.001455  17.920800  -0.006402  -0.002553  28.576000   2.544060   4.658890  38.663000  -0.002212   0.002999  25.749600  -0.005633   0.002730  28.130000   0.493130   0.922061  32.938600  -0.000671   0.003256  21.937100  -0.008355   0.000988  36.632700  -0.157804  -0.212227  54.949600  -0.010413   0.008600  36.596400   0.002144   0.005201   2.730530  11.819100   3.447640   0.660087   0.430241   5.703700  -1.395210  -5.062850   2.831530  -0.000000   0.000000   0.000000   1.568120  11.734700  -6.184810   0.211729   1.324680 -11.152200   0.635468  -5.280730   1.485950   0.000000   0.000000   0.000000
  1.121030  89.398600   3.020690  -3.110850  -7.929010  -0.640759   1.095720   4.689470   0.946261   2.123980   9.395660   1.811290   1.199000   0.197310  -0.015737   1.960800   0.399169  -1.241170  -5.578390  -1.055440   0.269230 -73.360400  18.904300  -2.157700  -0.833121  -4.472360 -17.124900  16.864800 -14.872400   7.731870  36.874100  31.008300 -61.547300 -33.810700   0.002476   0.001699 -11.911000   0.000841   0.006172 -33.233100   5.737080  -8.676410 -27.546700  -0.003032   0.012426 -19.271400  -0.004177   0.003761 -28.602000  -0.905556   1.639420 -37.601100   0.003440   0.011539 -25.042300  -0.011479  -0.002332 -28.433900  -0.900620   1.642070 -35.542800   0.003730  -0.004586 -23.666400   0.003610   0.003107 -31.712900  -0.981097   1.588640 -47.589800   0.004894   0.004938 -31.694900   0.003947   0.000713   9.085540   0.314655   6.309400  69.232000   8.089810  -1.108040  -4.063030  -5.344390  13.674700 -14.580200  -6.487350  -1.598090 -40.210600  30.093900  66.530700  25.102300   0.004220  -0.001906   7.551180   0.002443   0.009232  30.756900   6.019250   9.995900  25.594400  -0.006140   0.001453  17.919400  -0.006389  -0.002553  28.578200   2.504330   4.586420  38.651700  -0.002105   0.002976  25.742100  -0.005627   0.002751  28.130900   0.462929   0.865704  32.936400  -0.000607   0.003279  21.935600  -0.008346   0.000912  36.629600  -0.156922  -0.211122  54.944900  -0.010396   0.008546  36.593300   0.002146   0.005166   2.737990  11.831100   3.447740   0.660352   0.409744   5.704450  -1.400750  -5.042520   2.832180   0.000000   0.000000   0.000000   1.571240  11.737900  -6.183920   0.219333   1.321050 -11.152200   0.628300  -5.277110   1.493910   0.000000   0.000000   0.000000
  1.103920  89.398500   2.999840  -3.112850  -7.940730  -0.656287   1.095810   4.701810   0.946757   2.124040   9.420360   1.812000   1.191760   0.197184  -0.015679   1.953250   0.399170  -1.230370  -5.586470  -1.065230   0.239775 -73.389200  18.825000  -2.106680  -0.858780  -4.444220 -17.111200  16.832500 -14.846400   7.704950  36.874200  31.024200 -61.579900 -33.815200   0.002480   0.001714 -11.911000   0.000844   0.006164 -33.233200   5.736780  -8.676430 -27.546600  -0.003030   0.012435 -19.271300  -0.004176   0.003759 -28.602000  -0.905753   1.639420 -37.601300   0.003441   0.011544 -25.042400  -0.011486  -0.002332 -28.433900  -0.900819   1.642070 -35.535200   0.003733  -0.004589 -23.666400   0.003610   0.003105 -31.702300  -0.981562   1.588640 -47.573800   0.004895   0.004939 -31.684200   0.003948   0.000714   9.119470   0.255765   6.323910  69.224700   8.132250  -0.977931  -4.083750  -5.410020  13.590900 -14.478000  -6.671040  -1.783220 -40.155200  29.979600  66.364200  25.123500   0.004187  -0.001887   7.561750   0.002436   0.009248  30.750900   5.979060   9.930420  25.585100  -0.006076   0.001443  17.909600  -0.006355  -0.002550  28.578100   2.464600   4.513960  38.581100  -0.001907   0.002939  25.695000  -0.005611   0.002779  28.131800   0.432727   0.809347  32.920700  -0.000543   0.003312  21.925200  -0.008324   0.000836  36.608000  -0.150748  -0.203385  54.912200  -0.010354   0.008423  36.571500   0.002152   0.005088   2.751550  11.843000   3.447800   0.660586   0.389244   5.709750  -1.409560  -5.022180   2.837230   0.000000   0.000000   0.000000   1.578020  11.742500  -6.180330   0.226937   1.317430 -11.152300   0.617338  -5.269350   1.511090  -0.000000   0.000000   0.000000
  1.089800  89.398500   2.982150  -3.119020  -7.956160  -0.688878   1.095810   4.716160   0.951633   2.123520   9.449150   1.821480   1.186110   0.202961  -0.015593   1.946680   0.410968  -1.246690  -5.595120  -1.069590   0.194228 -73.411800  18.766600  -2.063090  -0.880358  -4.410070 -17.101700  16.802800 -14.828800   7.682010  36.875900  31.043000 -61.615700 -33.820000   0.002478   0.001721 -11.911100   0.000855   0.006181 -33.233300   5.736650  -8.676410 -27.546900  -0.003030   0.012446 -19.271100  -0.004176   0.003758 -28.601900  -0.905835   1.646100 -37.600700   0.003443   0.011558 -25.042000  -0.011496  -0.002332 -28.433700  -0.900899   1.648770 -35.537200   0.003734  -0.004591 -23.667800   0.003611   0.003101 -31.698100  -0.986133   1.595130 -47.567700   0.004895   0.004946 -31.680100   0.003950   0.000715   9.125340   0.202087   6.296680  69.211500   8.154070  -0.829141  -4.119960  -5.451490  13.633700 -14.418000  -6.804540  -2.016650 -40.319300  30.097800  66.453300  24.958700   0.004159  -0.001863   7.479340   0.002415   0.009270  30.685700   6.030350  10.036800  25.543200  -0.005983   0.001417  17.878900  -0.006303  -0.002539  28.564600   2.517010   4.613390  38.354700  -0.001649   0.002907  25.544200  -0.005589   0.002788  28.111800   0.511994   0.960195  32.768700  -0.000560   0.003327  21.824000  -0.008293   0.000855  36.509400  -0.125724  -0.170345  54.764100  -0.010289   0.008250  36.472900   0.002161   0.004980   2.764110  11.842900   3.447690   0.662037   0.410314   5.728030  -1.416660  -5.026620   2.849620  -0.000000   0.000000  -0.000000   1.586620  11.744100  -6.172990   0.225253   1.319640 -11.148400   0.610867  -5.259410   1.532230  -0.000000   0.000000  -0.000000
  1.075610  89.398500   2.964400  -3.130090  -7.974960  -0.737391   1.095680   4.731690   0.961090   2.122220   9.480350   1.840350   1.183040   0.216747  -0.015497   1.943600   0.438952  -1.294060  -5.600890  -1.071120   0.138407 -73.429800  18.722900  -2.022070  -0.905550  -4.388500 -17.092000  16.767900 -14.807200   7.658410  36.879500  31.064800 -61.650100 -33.824200   0.002472   0.001727 -11.911500   0.000870   0.006211 -33.233300   5.736610  -8.676390 -27.547200  -0.003030   0.012460 -19.271100  -0.004177   0.003758 -28.601800  -0.905860   1.652780 -37.596100   0.003446   0.011575 -25.039000  -0.011510  -0.002331 -28.433500  -0.900924   1.655470 -35.539300   0.003737  -0.004595 -23.669200   0.003614   0.003095 -31.692400  -0.990306   1.601780 -47.559300   0.004897   0.004954 -31.674500   0.003951   0.000717   9.129910   0.150910   6.241360  69.201500   8.163130  -0.674778  -4.189260  -5.467940  13.838900 -14.391300  -6.874530  -2.171550 -40.624100  30.301100  66.671000  24.639400   0.004128  -0.001825   7.319690   0.002384   0.009298  30.607600   6.149750  10.266500  25.494500  -0.005877   0.001386  17.846200  -0.006239  -0.002525  28.542000   2.636420   4.836290  38.187700  -0.001482   0.002889  25.433000  -0.005564   0.002789  28.087700   0.678799   1.275020  32.630200  -0.000673   0.003333  21.731700  -0.008256   0.000985  36.382500  -0.094304  -0.128296  54.573700  -0.010210   0.008058  36.346100   0.002172   0.004860   2.777750  11.842800   3.447620   0.663390   0.431374   5.757460  -1.422750  -5.031020   2.868810  -0.000000   0.000000  -0.000000   1.597460  11.746300  -6.163280   0.221395   1.322960 -11.137400   0.605101  -5.247640   1.559750  -0.000000   0.000000   0.000000
  1.061910  89.398500   2.947740  -3.146370  -7.995230  -0.802742   1.096050   4.745150   0.973520   2.122050   9.507500   1.865090   1.189330   0.236379  -0.015408   1.954200   0.478539  -1.371880  -5.602000  -1.056680   0.077349 -73.441300  18.706200  -1.988140  -0.934083  -4.389580 -17.080300  16.720700 -14.770200   7.633260  36.888600  31.085900 -61.675200 -33.826200   0.002460   0.001737 -11.912100   0.000880   0.006241 -33.226800   5.738740  -8.680340 -27.542700  -0.003029   0.012480 -19.271100  -0.004180   0.003758 -28.601900  -0.904607   1.652750 -37.579300   0.003449   0.011594 -25.027800  -0.011530  -0.002332 -28.433500  -0.899668   1.655440 -35.529700   0.003740  -0.004600 -23.662800   0.003617   0.003087 -31.678600  -0.990050   1.601970 -47.538600   0.004900   0.004961 -31.660700   0.003954   0.000720   9.117340   0.111597   6.173610  69.203700   8.113510  -0.545445  -4.306500  -5.440470  14.264400 -14.507700  -6.711810  -2.177470 -40.903200  30.518800  67.008500  24.266300   0.004095  -0.001753   7.133150   0.002349   0.009329  30.542500   6.331440  10.592000  25.473000  -0.005773   0.001356  17.831100  -0.006168  -0.002509  28.526500   2.812630   5.160070  38.235400  -0.001504   0.002902  25.464700  -0.005539   0.002489  28.090000   0.900972   1.690180  32.693100  -0.002246   0.002928  21.773600  -0.008219   0.002638  36.284100  -0.069929  -0.095457  54.426200  -0.010127   0.007874  36.247900   0.002187   0.004740   2.790810  11.866900   3.449380   0.664368   0.410716   5.793530  -1.426000  -5.017050   2.894480  -0.000000   0.000000  -0.000000   1.610750  11.752600  -6.152170   0.216058   1.323970 -11.120500   0.599232  -5.235210   1.594970   0.000000   0.000000  -0.000000
